<?xml version="1.0" standalone="no"?>
<!DOCTYPE svg PUBLIC "-//W3C//DTD SVG 20010904//EN"
 "http://www.w3.org/TR/2001/REC-SVG-20010904/DTD/svg10.dtd">
<svg version="1.0" xmlns="http://www.w3.org/2000/svg"
 width="421.000000pt" height="145.000000pt" viewBox="0 0 421.000000 145.000000"
 preserveAspectRatio="xMidYMid meet">

<g transform="translate(0.000000,145.000000) scale(0.100000,-0.100000)"
fill="#000000" stroke="none">
<path d="M170 715 l0 -575 40 0 c22 0 40 5 40 10 0 6 -11 10 -25 10 l-25 0 0
555 0 555 25 0 c14 0 25 5 25 10 0 6 -18 10 -40 10 l-40 0 0 -575z"/>
<path d="M3450 715 c0 -504 2 -575 15 -575 13 0 15 71 15 575 0 504 -2 575
-15 575 -13 0 -15 -71 -15 -575z"/>
<path d="M3950 1280 c0 -5 11 -10 25 -10 l25 0 0 -555 0 -555 -25 0 c-14 0
-25 -4 -25 -10 0 -5 20 -10 45 -10 l45 0 0 575 0 575 -45 0 c-25 0 -45 -4 -45
-10z"/>
<path d="M738 1263 c-40 -45 -28 -148 18 -159 49 -12 74 20 74 94 0 69 -55
107 -92 65z m50 -5 c18 -18 15 -123 -3 -138 -23 -19 -37 0 -43 58 -4 46 9 92
26 92 5 0 13 -5 20 -12z"/>
<path d="M1886 1258 c-23 -32 -21 -120 2 -141 26 -23 58 -21 76 5 23 32 21
120 -2 141 -26 23 -58 21 -76 -5z m68 -68 c0 -56 -19 -86 -44 -70 -10 6 -15
27 -15 70 0 43 5 64 15 70 25 16 44 -14 44 -70z"/>
<path d="M2748 1263 c-40 -45 -28 -148 18 -159 49 -12 74 20 74 94 0 69 -55
107 -92 65z m50 -5 c18 -18 15 -123 -3 -138 -23 -19 -37 0 -43 58 -4 46 9 92
26 92 5 0 13 -5 20 -12z"/>
<path d="M3328 1262 c-16 -9 -28 -21 -28 -26 0 -4 6 -3 13 3 21 17 27 3 27
-61 0 -51 -3 -60 -22 -68 -18 -7 -11 -9 32 -9 37 0 48 3 35 8 -17 7 -21 20
-25 89 l-5 81 -27 -17z"/>
<path d="M3653 1273 l-43 -4 0 -46 c0 -42 1 -45 23 -39 32 8 60 -14 55 -44 -5
-35 -32 -48 -56 -27 -23 21 -32 22 -32 2 0 -19 46 -30 78 -19 55 20 44 96 -16
102 -26 3 -32 7 -32 28 0 21 4 24 40 24 29 0 40 4 40 15 0 8 -3 14 -7 13 -5
-1 -27 -3 -50 -5z"/>
<path d="M3770 1255 c-21 -26 -25 -111 -6 -140 19 -29 56 -33 79 -7 33 36 29
132 -6 154 -20 13 -54 9 -67 -7z m60 -21 c14 -37 12 -97 -4 -119 -12 -16 -16
-17 -30 -6 -11 9 -16 30 -16 70 0 76 30 109 50 55z"/>
<path d="M505 936 c-15 -22 -12 -56 6 -56 4 0 1 -13 -9 -29 -16 -28 -15 -31 2
-50 21 -23 56 -27 87 -11 21 12 26 59 8 77 -8 8 -8 13 0 17 6 4 11 18 11 31 0
47 -78 62 -105 21z m63 5 c8 -4 12 -19 10 -32 -2 -18 -9 -24 -28 -24 -19 0
-26 6 -28 24 -3 20 11 41 28 41 3 0 11 -4 18 -9z m14 -96 c9 -21 9 -29 -4 -41
-22 -22 -58 -9 -58 20 0 47 43 62 62 21z"/>
<path d="M674 952 c-32 -21 -43 -87 -24 -137 11 -30 31 -39 64 -31 43 11 60
120 25 162 -12 15 -47 18 -65 6z m46 -21 c15 -28 12 -104 -4 -126 -12 -16 -16
-17 -30 -6 -11 9 -16 30 -16 70 0 72 26 105 50 62z"/>
<path d="M810 945 c-21 -26 -25 -111 -6 -140 46 -71 121 10 96 104 -13 51 -62
70 -90 36z m60 -21 c14 -37 12 -97 -4 -119 -12 -16 -16 -17 -30 -6 -11 9 -16
30 -16 70 0 76 30 109 50 55z"/>
<path d="M956 938 c-23 -32 -21 -120 2 -141 45 -41 92 -4 92 73 0 54 -22 90
-55 90 -13 0 -31 -10 -39 -22z m68 -74 c0 -61 -17 -85 -44 -58 -20 20 -20 122
1 134 25 16 43 -15 43 -76z"/>
<path d="M1750 901 c-22 -33 -40 -62 -40 -65 0 -4 16 -6 36 -6 33 0 36 -2 32
-25 -4 -21 -1 -25 17 -25 18 0 21 4 17 25 -3 18 0 25 12 25 9 0 16 7 16 16 0
14 -3 14 -15 4 -13 -11 -15 -5 -15 49 0 33 -4 61 -10 61 -5 0 -27 -27 -50 -59z
m32 -23 c-3 -29 -9 -38 -23 -38 -10 0 -19 3 -19 6 0 9 42 76 45 72 1 -2 0 -20
-3 -40z"/>
<path d="M1886 938 c-23 -32 -21 -120 2 -141 26 -23 58 -21 76 5 23 32 21 120
-2 141 -26 23 -58 21 -76 -5z m68 -68 c0 -56 -19 -86 -44 -70 -10 6 -15 27
-15 70 0 43 5 64 15 70 25 16 44 -14 44 -70z"/>
<path d="M2037 945 c-39 -39 -26 -150 19 -161 49 -12 74 20 74 94 0 68 -54
107 -93 67z m51 -7 c18 -18 15 -123 -3 -138 -23 -19 -37 0 -43 58 -4 46 9 92
26 92 5 0 13 -5 20 -12z"/>
<path d="M2664 946 c-10 -8 -16 -18 -12 -22 5 -4 17 1 28 11 10 9 26 15 35 12
27 -11 16 -53 -25 -103 -22 -27 -40 -52 -40 -56 0 -5 25 -8 55 -8 49 0 55 2
55 21 0 18 -3 19 -14 10 -8 -7 -27 -11 -43 -9 l-28 3 43 46 c43 47 52 75 30
97 -16 16 -60 15 -84 -2z"/>
<path d="M2820 945 c-21 -26 -25 -111 -6 -140 19 -29 56 -33 79 -7 33 36 29
132 -6 154 -20 13 -54 9 -67 -7z m61 -22 c12 -32 6 -110 -9 -125 -22 -22 -42
11 -42 71 0 77 30 108 51 54z"/>
<path d="M3328 942 c-16 -9 -28 -21 -28 -26 0 -4 6 -3 13 3 21 17 27 3 27 -61
0 -51 -3 -60 -22 -68 -18 -7 -11 -9 32 -9 37 0 48 3 35 8 -17 7 -21 20 -25 89
l-5 81 -27 -17z"/>
<path d="M3568 942 c-16 -9 -28 -21 -28 -26 0 -4 6 -3 13 3 21 17 27 3 27 -61
0 -51 -3 -60 -22 -68 -18 -7 -11 -9 32 -9 37 0 48 3 35 8 -17 7 -21 20 -25 89
l-5 81 -27 -17z"/>
<path d="M3698 943 c-40 -45 -28 -148 18 -159 49 -12 74 20 74 94 0 69 -55
107 -92 65z m50 -5 c18 -18 15 -123 -3 -138 -23 -19 -37 0 -43 58 -4 46 9 92
26 92 5 0 13 -5 20 -12z"/>
<path d="M3854 952 c-18 -12 -34 -49 -34 -81 0 -65 33 -101 79 -86 39 12 53
122 20 161 -12 15 -47 18 -65 6z m46 -21 c15 -29 12 -104 -5 -127 -15 -19 -15
-19 -30 0 -18 24 -20 117 -3 134 17 17 26 15 38 -7z"/>
<path d="M693 653 l-43 -4 0 -45 c0 -45 0 -45 28 -39 34 7 55 -13 50 -46 -5
-34 -33 -47 -56 -26 -23 21 -32 22 -32 2 0 -18 41 -29 75 -21 61 15 47 106
-15 106 -25 0 -30 4 -30 25 0 23 4 25 40 25 29 0 40 4 40 15 0 8 -3 14 -7 13
-5 -1 -27 -3 -50 -5z"/>
<path d="M1847 653 l-48 -4 3 -42 c3 -39 5 -42 29 -39 48 5 67 -57 26 -82 -15
-9 -21 -7 -32 8 -16 22 -31 16 -22 -9 15 -39 107 -2 107 43 0 26 -32 52 -63
52 -22 0 -27 5 -27 25 0 23 4 25 40 25 29 0 40 4 40 15 0 8 -1 14 -2 13 -2 -1
-25 -3 -51 -5z"/>
<path d="M2708 653 l-48 -4 0 -45 c0 -45 0 -45 28 -39 34 7 55 -13 50 -46 -5
-34 -33 -47 -56 -26 -23 21 -32 22 -32 2 0 -19 46 -30 78 -19 55 20 44 96 -16
102 -26 3 -32 7 -32 28 0 21 4 24 40 24 29 0 40 4 40 15 0 8 -1 14 -2 13 -2
-1 -24 -3 -50 -5z"/>
<path d="M388 632 c-16 -9 -28 -21 -28 -26 0 -4 6 -3 13 3 21 17 27 3 27 -61
0 -51 -3 -60 -22 -68 -18 -7 -11 -9 32 -9 37 0 48 3 35 8 -17 7 -21 20 -25 89
l-5 81 -27 -17z"/>
<path d="M513 643 c-15 -6 -17 -33 -3 -33 6 0 10 4 10 9 0 18 34 22 47 6 15
-21 8 -40 -34 -89 -46 -55 -43 -66 16 -66 36 0 51 4 55 16 9 23 0 30 -18 15
-8 -7 -26 -11 -40 -9 l-26 3 40 45 c40 46 49 77 28 98 -12 12 -52 15 -75 5z"/>
<path d="M806 628 c-9 -12 -16 -43 -16 -68 0 -54 22 -90 54 -90 46 0 74 63 56
129 -15 55 -65 70 -94 29z m64 -14 c14 -37 12 -97 -4 -119 -12 -16 -16 -17
-30 -6 -11 9 -16 30 -16 70 0 76 30 109 50 55z"/>
<path d="M956 628 c-23 -32 -21 -120 2 -141 45 -41 92 -4 92 73 0 54 -22 90
-55 90 -13 0 -31 -10 -39 -22z m68 -68 c0 -56 -19 -86 -44 -70 -10 6 -15 27
-15 70 0 43 5 64 15 70 25 16 44 -14 44 -70z"/>
<path d="M1108 633 c-40 -45 -28 -148 18 -159 49 -12 74 20 74 94 0 69 -55
107 -92 65z m50 -5 c18 -18 15 -123 -4 -139 -14 -11 -18 -10 -30 6 -24 33 -13
145 14 145 5 0 13 -5 20 -12z"/>
<path d="M1663 643 c-13 -5 -18 -33 -6 -33 3 0 15 7 25 16 14 14 20 14 33 4
23 -19 19 -34 -25 -89 -22 -28 -40 -55 -40 -61 0 -6 24 -10 55 -10 48 0 55 2
55 20 0 11 -4 20 -10 20 -5 0 -10 -4 -10 -10 0 -5 -13 -10 -30 -10 -37 0 -38
9 -4 41 64 59 64 120 1 118 -18 0 -38 -3 -44 -6z"/>
<path d="M1974 642 c-32 -21 -43 -87 -24 -137 11 -30 31 -39 64 -31 43 11 60
120 25 162 -12 15 -47 18 -65 6z m46 -21 c15 -29 12 -104 -5 -127 -15 -19 -15
-19 -30 0 -18 24 -20 117 -3 134 17 17 26 15 38 -7z"/>
<path d="M2110 635 c-21 -26 -25 -111 -6 -140 46 -71 121 10 96 104 -13 51
-62 70 -90 36z m60 -21 c14 -37 12 -97 -4 -119 -12 -16 -16 -17 -30 -6 -11 9
-16 30 -16 70 0 76 30 109 50 55z"/>
<path d="M2816 628 c-9 -12 -16 -43 -16 -68 0 -109 95 -125 115 -20 7 37 -8
89 -28 102 -23 15 -56 8 -71 -14z m65 -15 c12 -32 6 -110 -9 -125 -22 -22 -42
11 -42 71 0 77 30 108 51 54z"/>
<path d="M3328 632 c-16 -9 -28 -21 -28 -26 0 -4 6 -3 13 3 21 17 27 3 27 -61
0 -51 -3 -60 -22 -68 -18 -7 -11 -9 32 -9 37 0 48 3 35 8 -17 7 -21 20 -25 89
l-5 81 -27 -17z"/>
<path d="M3568 632 c-16 -9 -28 -21 -28 -26 0 -4 6 -3 13 3 21 17 27 3 27 -61
0 -51 -3 -60 -22 -68 -18 -7 -11 -9 32 -9 37 0 48 3 35 8 -17 7 -21 20 -25 89
l-5 81 -27 -17z"/>
<path d="M3693 643 c-15 -5 -18 -33 -4 -33 5 0 11 7 15 15 8 21 33 19 46 -4
11 -22 -9 -51 -38 -51 -9 -1 -2 -7 16 -15 25 -11 33 -20 30 -36 -5 -36 -33
-47 -59 -24 -21 20 -21 20 -18 0 3 -15 13 -21 41 -23 30 -3 40 1 53 22 13 19
14 29 5 45 -6 12 -16 21 -22 21 -6 0 -4 8 5 18 41 45 -8 91 -70 65z"/>
<path d="M3854 642 c-32 -21 -43 -87 -24 -137 11 -30 31 -39 64 -31 43 11 60
120 25 162 -12 15 -47 18 -65 6z m46 -21 c15 -29 12 -104 -5 -127 -15 -19 -15
-19 -30 0 -18 24 -20 117 -3 134 17 17 26 15 38 -7z"/>
<path d="M305 314 c-22 -18 -24 -22 -7 -14 22 11 22 10 22 -59 0 -64 -2 -70
-22 -74 -13 -2 2 -4 32 -4 30 -1 47 1 38 4 -15 4 -18 17 -18 89 0 46 -3 84 -7
84 -5 0 -21 -12 -38 -26z"/>
<path d="M436 318 c-9 -12 -16 -43 -16 -68 0 -54 22 -90 54 -90 46 0 74 63 56
129 -15 55 -65 70 -94 29z m64 -14 c14 -37 12 -97 -4 -119 -12 -16 -16 -17
-30 -6 -11 9 -16 30 -16 70 0 76 30 109 50 55z"/>
<path d="M586 318 c-23 -32 -21 -120 2 -141 26 -23 58 -21 76 5 23 32 21 120
-2 141 -26 23 -58 21 -76 -5z m68 -74 c-1 -62 -18 -84 -44 -58 -20 20 -20 122
1 134 26 16 43 -15 43 -76z"/>
<path d="M738 323 c-40 -45 -28 -148 18 -159 49 -12 74 20 74 94 0 69 -55 107
-92 65z m50 -5 c18 -18 15 -123 -4 -139 -14 -11 -18 -10 -30 6 -24 33 -13 145
14 145 5 0 13 -5 20 -12z"/>
<path d="M894 332 c-44 -29 -44 -151 1 -168 51 -20 92 34 82 108 -7 55 -47 84
-83 60z m46 -21 c16 -30 13 -116 -5 -131 -27 -22 -45 5 -45 69 0 72 26 105 50
62z"/>
<path d="M1026 318 c-9 -12 -16 -43 -16 -68 0 -109 95 -125 115 -20 7 37 -8
89 -28 102 -23 15 -56 8 -71 -14z m64 -14 c14 -37 12 -97 -4 -119 -12 -16 -16
-17 -30 -6 -11 9 -16 30 -16 70 0 76 30 109 50 55z"/>
<path d="M1176 318 c-23 -32 -21 -120 2 -141 26 -23 58 -21 76 5 23 32 21 120
-2 141 -26 23 -58 21 -76 -5z m68 -68 c0 -56 -19 -86 -44 -70 -10 6 -15 27
-15 70 0 43 5 64 15 70 25 16 44 -14 44 -70z"/>
<path d="M1608 322 c-32 -19 -38 -38 -8 -22 19 10 20 8 20 -59 0 -64 -2 -70
-22 -74 -13 -2 2 -4 32 -4 30 -1 47 1 38 4 -15 4 -18 17 -18 89 0 46 -3 84 -7
83 -5 0 -20 -8 -35 -17z"/>
<path d="M1740 325 c-21 -26 -25 -111 -6 -140 46 -71 121 10 96 104 -13 51
-62 70 -90 36z m60 -21 c14 -37 12 -97 -4 -119 -12 -16 -16 -17 -30 -6 -11 9
-16 30 -16 70 0 76 30 109 50 55z"/>
<path d="M1886 318 c-23 -32 -21 -120 2 -141 45 -41 92 -4 92 73 0 54 -22 90
-55 90 -13 0 -31 -10 -39 -22z m68 -74 c-1 -56 -14 -77 -40 -67 -27 10 -28
128 0 145 22 15 40 -21 40 -78z"/>
<path d="M2038 323 c-37 -42 -29 -145 13 -158 48 -16 79 21 79 93 0 69 -55
107 -92 65z m50 -5 c18 -18 15 -123 -4 -139 -14 -11 -18 -10 -30 6 -24 33 -13
145 14 145 5 0 13 -5 20 -12z"/>
<path d="M2194 332 c-32 -21 -43 -87 -24 -137 11 -30 31 -39 64 -31 43 11 60
120 25 162 -12 15 -47 18 -65 6z m46 -21 c15 -29 12 -104 -5 -127 -15 -19 -15
-19 -30 0 -18 24 -20 117 -3 134 17 17 26 15 38 -7z"/>
<path d="M2618 324 c-16 -8 -28 -20 -28 -26 0 -7 4 -7 13 1 21 17 27 3 27 -61
0 -51 -3 -60 -22 -68 -18 -7 -11 -9 32 -9 37 0 48 3 35 8 -17 7 -21 20 -25 89
l-5 80 -27 -14z"/>
<path d="M2748 323 c-40 -45 -28 -148 18 -159 49 -12 74 20 74 94 0 69 -55
107 -92 65z m50 -5 c18 -18 15 -123 -4 -139 -14 -11 -18 -10 -30 6 -24 33 -13
145 14 145 5 0 13 -5 20 -12z"/>
<path d="M2904 332 c-32 -21 -43 -87 -24 -137 11 -30 31 -39 64 -31 43 11 60
120 25 162 -12 15 -47 18 -65 6z m46 -21 c15 -28 12 -104 -4 -126 -12 -16 -16
-17 -30 -6 -11 9 -16 30 -16 70 0 72 26 105 50 62z"/>
<path d="M3328 322 c-16 -9 -28 -21 -28 -26 0 -4 6 -3 13 3 21 17 27 3 27 -61
0 -51 -3 -60 -22 -68 -18 -7 -11 -9 32 -9 37 0 48 3 35 8 -17 7 -21 20 -25 89
l-5 81 -27 -17z"/>
<path d="M3543 333 c-13 -5 -18 -33 -6 -33 3 0 15 7 25 16 14 14 20 14 33 4
22 -19 19 -31 -25 -90 -22 -29 -40 -57 -40 -62 0 -4 25 -8 55 -8 48 0 55 2 55
20 0 21 -15 27 -25 10 -7 -12 -55 -14 -55 -2 0 5 12 19 26 33 23 21 54 69 54
83 0 2 -7 12 -16 20 -15 15 -55 20 -81 9z"/>
<path d="M3705 314 c-22 -18 -24 -22 -7 -14 22 11 22 10 22 -59 0 -58 -3 -70
-17 -74 -10 -3 7 -5 37 -5 42 -1 50 1 33 8 -21 9 -23 16 -23 90 0 44 -3 80 -7
80 -5 0 -21 -12 -38 -26z"/>
<path d="M3854 332 c-32 -21 -43 -87 -24 -137 21 -54 83 -46 101 14 25 83 -23
159 -77 123z m46 -21 c16 -30 13 -116 -5 -131 -27 -22 -45 5 -45 69 0 72 26
105 50 62z"/>
</g>
</svg>
